<svg width="605" height="294" viewBox="0 0 605 294" fill="none" xmlns="http://www.w3.org/2000/svg">
<rect width="605" height="294" fill="#0667D0"/>
<path d="M41.2031 19.5039H23.6602V67H19.3359V19.5039H1.82812V15.8125H41.2031V19.5039ZM42.6797 47.418C42.6797 43.7617 43.3828 40.4688 44.7891 37.5391C46.2188 34.6094 48.2227 32.3359 50.8008 30.7188C53.4023 29.0781 56.3438 28.2578 59.625 28.2578C64.6875 28.2578 68.7891 30.0391 71.9297 33.6016C75.0703 37.1406 76.6406 41.8398 76.6406 47.6992V48.5781C76.6406 52.2578 75.9258 55.5742 74.4961 58.5273C73.0898 61.457 71.0977 63.7188 68.5195 65.3125C65.9414 66.9062 63 67.7031 59.6953 67.7031C54.6562 67.7031 50.5547 65.9336 47.3906 62.3945C44.25 58.832 42.6797 54.1211 42.6797 48.2617V47.418ZM46.8984 48.5781C46.8984 53.125 48.0703 56.8633 50.4141 59.793C52.7812 62.6992 55.875 64.1523 59.6953 64.1523C63.4922 64.1523 66.5625 62.6992 68.9062 59.793C71.2734 56.8633 72.457 53.0078 72.457 48.2266V47.418C72.457 44.5117 71.918 41.8516 70.8398 39.4375C69.7617 37.0234 68.25 35.1602 66.3047 33.8477C64.3594 32.5117 62.1328 31.8438 59.625 31.8438C55.875 31.8438 52.8164 33.3203 50.4492 36.2734C48.082 39.2031 46.8984 43.0469 46.8984 47.8047V48.5781ZM83.0391 47.418C83.0391 43.7617 83.7422 40.4688 85.1484 37.5391C86.5781 34.6094 88.582 32.3359 91.1602 30.7188C93.7617 29.0781 96.7031 28.2578 99.9844 28.2578C105.047 28.2578 109.148 30.0391 112.289 33.6016C115.43 37.1406 117 41.8398 117 47.6992V48.5781C117 52.2578 116.285 55.5742 114.855 58.5273C113.449 61.457 111.457 63.7188 108.879 65.3125C106.301 66.9062 103.359 67.7031 100.055 67.7031C95.0156 67.7031 90.9141 65.9336 87.75 62.3945C84.6094 58.832 83.0391 54.1211 83.0391 48.2617V47.418ZM87.2578 48.5781C87.2578 53.125 88.4297 56.8633 90.7734 59.793C93.1406 62.6992 96.2344 64.1523 100.055 64.1523C103.852 64.1523 106.922 62.6992 109.266 59.793C111.633 56.8633 112.816 53.0078 112.816 48.2266V47.418C112.816 44.5117 112.277 41.8516 111.199 39.4375C110.121 37.0234 108.609 35.1602 106.664 33.8477C104.719 32.5117 102.492 31.8438 99.9844 31.8438C96.2344 31.8438 93.1758 33.3203 90.8086 36.2734C88.4414 39.2031 87.2578 43.0469 87.2578 47.8047V48.5781ZM122.555 47.6992C122.555 41.7695 123.879 37.0469 126.527 33.5312C129.199 30.0156 132.844 28.2578 137.461 28.2578C141.164 28.2578 144.223 29.6406 146.637 32.4062V13H156.832V67H147.656L147.164 62.957C144.633 66.1211 141.375 67.7031 137.391 67.7031C132.914 67.7031 129.316 65.9453 126.598 62.4297C123.902 58.8906 122.555 53.9805 122.555 47.6992ZM132.715 48.4375C132.715 52 133.336 54.7305 134.578 56.6289C135.82 58.5273 137.625 59.4766 139.992 59.4766C143.133 59.4766 145.348 58.1523 146.637 55.5039V40.4922C145.371 37.8438 143.18 36.5195 140.062 36.5195C135.164 36.5195 132.715 40.4922 132.715 48.4375ZM187.488 63.1328C184.98 66.1797 181.512 67.7031 177.082 67.7031C173.004 67.7031 169.887 66.5312 167.73 64.1875C165.598 61.8438 164.508 58.4102 164.461 53.8867V28.9609H174.621V53.5352C174.621 57.4961 176.426 59.4766 180.035 59.4766C183.48 59.4766 185.848 58.2812 187.137 55.8906V28.9609H197.332V67H187.77L187.488 63.1328Z" transform="translate(198 107)" fill="white"/>
</svg>
