<svg fill="#60d9fa" height="100" viewBox="0 0 50 50" width="100" xmlns="http://www.w3.org/2000/svg"><path clip-rule="evenodd" d="m34.554688 3.984375c-.779685-.0262168-1.595804.1097176-2.414063.375-1.636516.530566-3.351422 1.5645098-5.111328 2.9960938-.689708.5610383-1.385674 1.20236-2.083985 1.8828124-.682914-.6631773-1.364579-1.2872838-2.039062-1.8359374-1.758492-1.4304349-3.46875-2.4647766-5.101562-2.9941407-1.63281-.5293645-3.257465-.5457675-4.591797.2246094-1.334333.7703768-2.132272 2.1845433-2.490235 3.8632813-.357963 1.6787382-.318531 3.6778982.041016 5.9160152.124887.777402.302999 1.592969.505859 2.423829-.762436.231066-1.5028543.474017-2.1894529.742187-2.0720964.809313-3.7866313 1.777538-5.0351562 2.929687-1.248525 1.15215-2.0546875 2.550492-2.0546875 4.085938s.8061625 2.931835 2.0546875 4.083984c1.2485249 1.15215 2.9630598 2.122328 5.0351562 2.931641.7341735.286751 1.5290399.544951 2.3496099.789063-.295157 1.10284-.534294 2.173029-.697266 3.1875-.359835 2.239915-.397834 4.239327-.039063 5.921874.358775 1.682548 1.157119 3.104722 2.498047 3.878907 1.34093.774186 2.972858.755175 4.609375.224609 1.636516-.530566 3.349469-1.562556 5.109375-2.99414.683356-.555872 1.374601-1.189982 2.066406-1.863282.695434.677357 1.389444 1.314432 2.076172 1.873047 1.758493 1.430434 3.470704 2.462823 5.103516 2.992188 1.632811.529364 3.257465.545767 4.591797-.22461s2.130319-2.184543 2.488281-3.863281.318529-3.675946-.041016-5.914062c-.163413-1.017223-.402698-2.090961-.699218-3.197266.847675-.250056 1.66765-.515201 2.423828-.810547 2.072096-.809313 3.786631-1.779491 5.035156-2.931641 1.248525-1.152149 2.054688-2.548538 2.054688-4.083984s-.806163-2.933787-2.054688-4.085938c-1.248525-1.152149-2.96306-2.120374-5.035156-2.929687-.696452-.272018-1.448234-.518133-2.222656-.751953.204509-.835951.386079-1.657367.511718-2.439453.359835-2.239915.397841-4.24128.039063-5.9238284-.358768-1.6825472-1.159071-3.1027662-2.5-3.8769531-.670465-.3870923-1.413675-.5753457-2.193359-.6015625zm-.091797 2.0351562c.489263.0133788.906644.1298074 1.263671.3359376.714056.4122599 1.241857 1.2146236 1.523438 2.5351562.281581 1.320531.271848 3.104705-.060547 5.173828-.113806.708425-.279051 1.459237-.466797 2.228516-2.045505-.492274-4.286912-.857568-6.675781-1.072266-1.199237-1.661374-2.431471-3.174922-3.673828-4.517578.657135-.641463 1.310016-1.2413991 1.947265-1.7597656 1.625714-1.3224262 3.164814-2.2222632 4.449219-2.6386719.642203-.2082051 1.204096-.298535 1.69336-.2851563zm-18.976563.0058594c.492091-.0137373 1.055163.0763509 1.699219.2851563 1.28811.4176107 2.829905 1.31705 4.457031 2.640625.624459.5079617 1.26272 1.0964791 1.90625 1.7226561-1.251545 1.353645-2.493966 2.880312-3.701172 4.556641-2.378767.218605-4.61105.585881-6.646484 1.080078-.186346-.76501-.351614-1.511961-.464844-2.216797-.332686-2.07092-.340988-3.855346-.058594-5.1796875.282394-1.3243417.814504-2.1327593 1.535157-2.5488281.360325-.2080342.781346-.3261065 1.273437-.3398438zm9.490234 6.1171874c.81461.886493 1.629394 1.856582 2.4375 2.900391-.794029-.033108-1.597774-.052735-2.414062-.052735-.832543 0-1.65159.020264-2.460938.054688.80829-1.044616 1.622688-2.015185 2.4375-2.902344zm.023438 4.867188c1.359894 0 2.685348.055881 3.974609.15039.887121 1.274155 1.754039 2.625899 2.580079 4.056641.725816 1.257151 1.38264 2.512366 1.980468 3.751953-.604139 1.256032-1.271972 2.528222-2.007812 3.802734-.647735 1.121909-1.324154 2.187465-2.011719 3.214844-1.456312.121722-2.965322.189453-4.515625.189453-1.587625 0-3.130538-.07175-4.619141-.199219-.676117-1.012607-1.341124-2.062022-1.978515-3.166015-.734158-1.271598-1.398767-2.541468-2.001953-3.794922.605715-1.260533 1.27331-2.537445 2.011718-3.816406.821709-1.423242 1.686098-2.767164 2.56836-4.035157 1.30314-.096638 2.643981-.154296 4.019531-.154296zm6.548828.40039c1.648471.205685 3.196255.491249 4.636719.833985-.427418 1.401146-.953893 2.864667-1.591797 4.375-.414183-.798422-.843151-1.599556-1.306641-2.402344-.561687-.972871-1.146701-1.900381-1.738281-2.806641zm-13.205078.015625c-.579096.889316-1.148914 1.798797-1.699219 2.751953-.469437.813089-.90731 1.625002-1.326172 2.433594-.632399-1.501253-1.155705-2.956451-1.580078-4.349609 1.429721-.343356 2.968485-.627906 4.605469-.835938zm19.820312 1.34961c.708882.214486 1.393504.438319 2.021485.683593 1.910153.746062 3.421103 1.629509 4.400391 2.533204.979286.903694 1.404296 1.765508 1.404296 2.601562s-.425009 1.697869-1.404296 2.601562c-.979288.903695-2.490238 1.787142-4.400391 2.533204-.697849.272563-1.464587.519727-2.261719.753906-.568629-1.758779-1.29442-3.59365-2.158203-5.466797.99316-2.150542 1.795463-4.247336 2.398437-6.240234zm-26.361328.009765c.596069 1.973013 1.388077 4.048962 2.367188 6.177735-.869452 1.884064-1.598835 3.729363-2.169922 5.498047-.76904-.228019-1.509788-.468487-2.1855469-.732422-1.9101536-.746062-3.4211031-1.629509-4.4003906-2.533204-.9792875-.903694-1.4042969-1.765508-1.4042969-2.601562s.4250094-1.697868 1.4042969-2.601562c.9792875-.903695 2.490237-1.787142 4.4003906-2.533204.6183209-.241501 1.2914619-.462147 1.9882809-.673828zm13.197266 1.214844c-2.749579 0-5 2.250421-5 5s2.250421 5 5 5 5-2.250421 5-5-2.250421-5-5-5zm-9.658203 7.365234c.420699.812619.858231 1.628049 1.330078 2.445313.369173.639426.746198 1.261846 1.128906 1.873047-1.342964-.186222-2.61955-.421989-3.818359-.701172.38123-1.167612.837322-2.379626 1.359375-3.617188zm19.277344 0c.524143 1.240491.980468 2.454447 1.363281 3.625-1.202614.278855-2.48313.513818-3.830078.699219.387727-.618674.770638-1.248883 1.144531-1.896484.468377-.811252.904208-1.621052 1.322266-2.427735zm-21.212891 5.558594c1.809824.42874 3.771466.758084 5.851562.972656 1.388568 2.008375 2.835155 3.813013 4.291016 5.390625-.651015.63475-1.296262 1.230474-1.927734 1.744141-1.625714 1.322427-3.166768 2.220309-4.451172 2.636719-1.284406.416409-2.242976.361477-2.957031-.050781-.714056-.412261-1.239904-1.214625-1.521485-2.535157s-.2738-3.102752.058594-5.171875c.150793-.938664.37615-1.943782.65625-2.986328zm23.154297.007813c.28244 1.048907.508466 2.057709.660156 3.001953.332686 2.070919.340987 3.855345.058594 5.179687-.282394 1.324342-.810598 2.134712-1.53125 2.550781-.720652.41607-1.688453.470348-2.976563.052735-1.28811-.417611-2.829906-1.31705-4.457031-2.640625-.636014-.517361-1.285727-1.117914-1.941406-1.757813 1.465617-1.583769 2.92242-3.397601 4.320312-5.417968 2.085342-.21314 4.052432-.540516 5.867188-.96875zm-14.693359 1.169921c1.026763.055956 2.067056.09375 3.132812.09375 1.030504 0 2.037063-.035525 3.03125-.08789-1.016289 1.371171-2.052216 2.617727-3.083984 3.740234-1.031141-1.124905-2.065122-2.373688-3.080078-3.746094z" fill-rule="evenodd"/></svg>