<svg enable-background="new 0 0 1000 1000" fill="#cb2026" viewBox="0 0 1000 1000" xmlns="http://www.w3.org/2000/svg"><path d="m990 204.2-21.6 32.4s-54-61.1-152.8-50.4c-98.9 10.8-273.3 111.5-300.3 332.7-27 221.1 79.1 462.1 79.1 462.1h-478.3s-12.6-79.1 18-230.2c30.6-151 75.5-251.7 152.8-395.6 77.3-143.8 201.4-262.5 381.2-278.7 179.8-16.1 321.9 127.7 321.9 127.7zm-969.2 535.9-10.8 89.9 88.1 10.8 16.2-93.5zm172.6-268-82.7-32.4-27 75.5 84.5 27zm140.3-228.3-62.9-41.4-50.3 55.7 64.7 43.2zm181.6-147.5-43.2-48.6-59.3 30.6 43.2 52.1zm192.4-27-7.2-46.8-77.3-3.5 10.8 52.2zm224.8 48.6-59.3-43.2-1.8 32.4 50.3 27zm-70.2 122.3 48.6 5.4v-21.6l-48.6-10.8zm-154.6-3.6 23.4 43.1 34.2-27-7.3-28.7zm-37.8 109.7-36-53.9-37.8 34.2 52.1 57.5zm-131.2 142 61.1 52.2 14.4-59.3-52.2-39.6zm-5.4 179.8 75.5 32.4-3.6-59.3-68.3-36zm138.4 230.2-34.2-70.1h-79.1l18 64.7z"/></svg>