<svg height="96" viewBox="0 0 48 48" width="96" xmlns="http://www.w3.org/2000/svg"><path d="m42 14-2 26-26 2z" fill="#9b1010"/><path d="m28 28 12 12 2-26z" fill="#b71c1c"/><path d="m39.996094 8.003906c-4.554688-4.554687-15.410156-1.085937-24.242188 7.75-8.835937 8.832032-12.304687 19.6875-7.75 24.242188 4.554688 4.554687 15.410157 1.085937 24.242188-7.75 8.835937-8.832031 12.304687-19.6875 7.75-24.242188z" fill="#c62828"/><path d="m10 17 7-7 8-4 6 4-3 9-9 8-9 3-4-6z" fill="#e53935"/><path d="m31 10-6-4h11zm11 5-11-5-3 9zm-23 12 13.234375 5.234375-4.234375-13.234375zm-9 3 4 12 5-15zm-4-6v11l4-5z" fill="#ff5252"/></svg>